<svg xmlns="http://www.w3.org/2000/svg" viewBox="0 0 500 500">
  <circle cx="250" cy="250" r="240" fill="#FFFFFF" stroke="#E2E2E2" stroke-width="10"/>
  <path d="M250 50c110.457 0 200 89.543 200 200s-89.543 200-200 200S50 360.457 50 250 139.543 50 250 50" fill="none" stroke="#000000" stroke-width="20"/>
  <path d="M180 150h140c16.569 0 30 13.431 30 30v140c0 16.569-13.431 30-30 30H180c-16.569 0-30-13.431-30-30V180c0-16.569 13.431-30 30-30z" fill="#000000"/>
  <circle cx="150" cy="150" r="15" fill="#000000"/>
  <circle cx="350" cy="150" r="15" fill="#000000"/>
  <circle cx="150" cy="350" r="15" fill="#000000"/>
  <circle cx="350" cy="350" r="15" fill="#000000"/>
  <circle cx="250" cy="150" r="15" fill="#000000"/>
  <circle cx="250" cy="350" r="15" fill="#000000"/>
  <rect x="150" y="200" width="15" height="100" fill="#000000"/>
  <rect x="335" y="200" width="15" height="100" fill="#000000"/>
</svg>